{"title":"WWE SUPERSTARS 07 01 2010","uid":5663849,"size":465841943,"categoryP":"video","categoryS":"tv_shows","magnet":"?xt=urn:btih:810698bbbe5967d8d405b23265cbae0494c56dc8&amp;dn=WWE+SUPERSTARS+07+01+2010&amp;tr=udp%3A%2F%2Ftracker.openbittorrent.com%3A80&amp;tr=udp%3A%2F%2Fopen.demonii.com%3A1337&amp;tr=udp%3A%2F%2Ftracker.coppersurfer.tk%3A6969&amp;tr=udp%3A%2F%2Fexodus.desync.com%3A6969","seeders":0,"leechers":1,"uploader":"ken.burns","files":2,"time":1278065527,"description":"General\nComplete name : WWE SUPERSTARS 07 01 2010\nFormat : AVI\nFormat/Info : Audio Video Interleave\nFile size : 444 MiB\nDuration : 38mn 56s\n\nVideo\nFormat : AVI\nFormat profile : &lt;a class=&quot;__cf_email__&quot; href=&quot;/cdn-cgi/l/email-protection&quot; data-cfemail=&quot;96d4f7e5f3fafff8f3d6daa7b8a5&quot;&gt;[email&amp;#160;protected]&lt;/a&gt;&lt;script cf-hash='f9e31' type=&quot;text/javascript&quot;&gt;\n/* &lt;![CDATA[ */!function(){try{var t=&quot;currentScript&quot;in document?document.currentScript:function(){for(var t=document.getElementsByTagName(&quot;script&quot;),e=t.length;e--;)if(t[e].getAttribute(&quot;cf-hash&quot;))return t[e]}();if(t&amp;&amp;t.previousSibling){var e,r,n,i,c=t.previousSibling,a=c.getAttribute(&quot;data-cfemail&quot;);if(a){for(e=&quot;&quot;,r=parseInt(a.substr(0,2),16),n=2;a.length-n;n+=2)i=parseInt(a.substr(n,2),16)^r,e+=String.fromCharCode(i);e=document.createTextNode(e),c.parentNode.replaceChild(e,c)}}}catch(u){}}();/* ]]&gt; */&lt;/script&gt;\nCodec ID : H264\nDuration : 38mn 56s\nBit rate : 1 262 Kbps\nNominal bit rate : 1 147 Kbps\nWidth : 720 pixels\nHeight : 576 pixels\nDisplay aspect ratio : 5:4\nFrame rate : 29.970 fps\nStandard : PAL\nResolution : 24 bits\nColorimetry : 4:2:0\nScan type : Progressive\nBits/(Pixel*Frame) : 0.102\nStream size : 351 MiB (79%)\n\n\nAudio\nFormat : MPEG Audio\nFormat version : Version 1\nFormat profile : Layer 3\nFormat_Settings_Mode : Joint stereo / MS Stereo\nCodec ID : 55\nCodec ID/Hint : MP3\nDuration : 38mn 54s\nBit rate mode : Constant\nBit rate : 320 Kbps\nChannel(s) : 2 channels\nSampling rate : 44.1 KHz\nResolution : 16 bits\nStream size : 89.0 MiB (20%)\nAlignment : Aligned on interleaves\nInterleave, duration : 26 ms (0.78 video frame)\nWriting library : LAME3.97\n","torrent":{"xt":"urn:btih:810698bbbe5967d8d405b23265cbae0494c56dc8","amp;dn":"WWE+SUPERSTARS+07+01+2010","amp;tr":["udp%3A%2F%2Ftracker.openbittorrent.com%3A80","udp%3A%2F%2Fopen.demonii.com%3A1337","udp%3A%2F%2Ftracker.coppersurfer.tk%3A6969","udp%3A%2F%2Fexodus.desync.com%3A6969"],"infoHash":"810698bbbe5967d8d405b23265cbae0494c56dc8","infoHashBuffer":{"type":"Buffer","data":[129,6,152,187,190,89,103,216,212,5,178,50,101,203,174,4,148,197,109,200]},"announce":[],"urlList":[]}}